<svg width="28.363647" height="30.000000" viewBox="0 0 28.3636 30" fill="none" xmlns="http://www.w3.org/2000/svg" xmlns:xlink="http://www.w3.org/1999/xlink">
	<desc>
			Created with Pixso.
	</desc>
	<defs/>
	<path id="Vector" d="M1.99475 0L0 5.14955L0 26.1964L7.09094 26.1964L7.09094 30L11.0803 30L14.8445 26.1964L20.61 26.1964L28.3636 18.3616L28.3636 0L1.99475 0ZM25.7062 17.0156L21.2727 21.4955L14.1818 21.4955L10.4177 25.2991L10.4177 21.4955L4.43347 21.4955L4.43347 2.68527L25.7062 2.68527L25.7062 17.0156ZM21.2727 7.83482L21.2727 15.6629L18.6154 15.6629L18.6154 7.83482L21.2727 7.83482ZM14.1818 7.83482L14.1818 15.6629L11.5244 15.6629L11.5244 7.83482L14.1818 7.83482Z" fill-rule="nonzero" fill="#000000"/>
</svg>
