<svg width="23.454590" height="28.363632" viewBox="0 0 23.4546 28.3636" fill="none" xmlns="http://www.w3.org/2000/svg" xmlns:xlink="http://www.w3.org/1999/xlink">
	<desc>
			Created with Pixso.
	</desc>
	<defs/>
	<path id="YouTube" d="M19.8395 20.7471L18.2946 20.7471L18.3018 19.8429C18.3018 19.4411 18.6292 19.1124 19.0294 19.1124L19.1279 19.1124C19.5289 19.1124 19.8573 19.4411 19.8573 19.8429L19.8395 20.7471ZM14.0455 18.8095C13.6537 18.8095 13.3331 19.0749 13.3331 19.3998L13.3331 23.7971C13.3331 24.1214 13.6537 24.3861 14.0455 24.3861C14.439 24.3861 14.7598 24.1214 14.7598 23.7971L14.7598 19.3998C14.7598 19.0745 14.439 18.8095 14.0455 18.8095ZM23.4546 16.3497L23.4546 24.7151C23.4546 26.7217 21.7277 28.3636 19.6174 28.3636L3.83752 28.3636C1.7262 28.3636 0 26.7217 0 24.7151L0 16.3497C0 14.3432 1.7262 12.7009 3.83752 12.7009L19.6174 12.7009C21.7277 12.7009 23.4546 14.3432 23.4546 16.3497ZM4.89014 25.6234L4.88892 16.8114L6.84497 16.8121L6.84497 15.5064L1.63062 15.4985L1.63062 16.7821L3.2583 16.7869L3.2583 25.6234L4.89014 25.6234ZM10.7538 18.1241L9.12292 18.1241L9.12292 22.8296C9.12292 23.5103 9.16382 23.8507 9.12036 23.9707C8.98779 24.3357 8.39172 24.723 8.15942 24.0101C8.12 23.8853 8.15466 23.5087 8.15405 22.862L8.14746 18.1241L6.52563 18.1241L6.53064 22.7873C6.53198 23.5021 6.51477 24.0353 6.53625 24.2777C6.57605 24.7054 6.56201 25.2042 6.95569 25.4888C7.68933 26.0217 9.0957 25.4094 9.44751 24.648L9.44434 25.6196L10.754 25.6212L10.754 18.1241L10.7538 18.1241ZM15.9709 23.5125L15.9675 19.5961C15.9663 18.1036 14.8583 17.2095 13.3541 18.4171L13.3606 15.5055L11.7313 15.508L11.7235 25.5582L13.063 25.5383L13.1849 24.9124C14.8973 26.4954 15.9735 25.411 15.9709 23.5125ZM21.075 22.9935L19.8519 23.0001C19.8513 23.0489 19.8497 23.1053 19.8491 23.1668L19.8491 23.8544C19.8491 24.2222 19.5474 24.5219 19.1808 24.5219L18.9413 24.5219C18.5741 24.5219 18.2727 24.2222 18.2727 23.8544L18.2727 23.7782L18.2727 23.0218L18.2727 22.0458L21.0729 22.0458L21.0729 20.9837C21.0729 20.2075 21.0531 19.4316 20.9893 18.9879C20.7892 17.5842 18.834 17.3614 17.8464 18.0799C17.5361 18.3043 17.2994 18.6047 17.1619 19.0084C17.0227 19.4121 16.9539 19.9636 16.9539 20.6642L16.9539 22.9991C16.9542 26.8812 21.6332 26.3325 21.075 22.9935ZM14.8024 10.3155C14.8865 10.5217 15.0172 10.6887 15.1945 10.8147C15.3696 10.9389 15.5939 11.0013 15.8618 11.0013C16.097 11.0013 16.3053 10.9373 16.4867 10.8053C16.6675 10.6739 16.8197 10.4775 16.9438 10.2156L16.9132 10.8604L18.7311 10.8604L18.7311 3.06958L17.3 3.06958L17.3 9.13309C17.3 9.46149 17.0317 9.7303 16.7037 9.7303C16.3776 9.7303 16.1083 9.46149 16.1083 9.13309L16.1083 3.06958L14.6147 3.06958L14.6147 8.32442C14.6147 8.99379 14.6266 9.44005 14.6462 9.66632C14.6672 9.89104 14.7181 10.1066 14.8024 10.3155ZM9.29333 5.91539C9.29333 5.16754 9.35522 4.58356 9.47815 4.16252C9.60193 3.74306 9.82434 3.40584 10.1465 3.15152C10.4677 2.89592 10.8789 2.76797 11.3789 2.76797C11.7996 2.76797 12.1598 2.85118 12.4609 3.01411C12.7633 3.17799 12.9963 3.39072 13.1583 3.65323C13.3231 3.9167 13.4351 4.18742 13.4948 4.46443C13.5558 4.74524 13.5858 5.16879 13.5858 5.74017L13.5858 7.71049C13.5858 8.43314 13.557 8.9648 13.5013 9.30232C13.446 9.64079 13.3271 9.9547 13.1433 10.249C12.9617 10.5402 12.7274 10.758 12.4434 10.897C12.1564 11.0372 11.828 11.1059 11.457 11.1059C11.0427 11.1059 10.6937 11.0483 10.406 10.9279C10.1173 10.8081 9.89441 10.6275 9.73547 10.3877C9.57507 10.1476 9.46216 9.8551 9.39404 9.51411C9.32556 9.17343 9.29297 8.661 9.29297 7.97806L9.29297 5.91539L9.29333 5.91539ZM10.7172 9.01018C10.7172 9.45139 11.043 9.81161 11.4398 9.81161C11.837 9.81161 12.1614 9.45139 12.1614 9.01018L12.1614 4.86279C12.1614 4.42221 11.837 4.06198 11.4398 4.06198C11.043 4.06198 10.7172 4.42221 10.7172 4.86279L10.7172 9.01018ZM5.68604 11.1044L7.401 11.1044L7.40283 5.12909L9.42932 0.0104065L7.55359 0.0104065L6.47632 3.81239L5.38354 0L3.52722 0L5.68323 5.13193L5.68604 11.1044Z" fill-rule="nonzero" fill="#000000"/>
</svg>
