<svg width="62.000000" height="62.000000" viewBox="0 0 62 62" fill="none" xmlns="http://www.w3.org/2000/svg" xmlns:xlink="http://www.w3.org/1999/xlink">
	<desc>
			Created with Pixso.
	</desc>
	<defs/>
	<path id="Vector" d="M55.1235 22.7629L56.082 11.8687L45.9082 9.44751L40.582 0L31 4.31055L21.418 0L16.0918 9.41821L5.91797 11.8096L6.87646 22.7334L0 31L6.87646 39.2371L5.91797 50.1609L16.0918 52.5818L21.418 62L31 57.6599L40.582 61.9705L45.9082 52.5525L56.082 50.1313L55.1235 39.2371L62 31L55.1235 22.7629ZM59.5527 31L53.1841 23.3711L53.252 22.5981L54.0679 13.3206L44.6748 11.0854L39.7881 2.41724L31 6.37061L22.21 2.41626L17.3223 11.0588L7.93213 13.2661L8.81543 23.3398L2.4458 30.9978L8.81592 38.6287L7.93164 48.7087L17.3237 50.9438L22.208 59.5798L30.9976 55.5986L39.79 59.5542L44.6763 50.9143L54.0679 48.6794L53.1841 38.6289L59.5527 31Z" fill-rule="evenodd" fill="#F8F200"/>
	<path id="акция" d="M21.8625 37.857L19.1402 35.1347C18.0512 34.0457 16.9623 34.0457 15.8733 35.1347L13.349 37.659L14.4379 38.748L16.9623 36.2236C17.3253 35.8606 17.685 35.8573 18.0413 36.2137L18.0512 36.2236L16.1505 38.1243C15.2398 39.0351 15.2299 39.9359 16.1208 40.8269C17.0448 41.7508 17.9621 41.7574 18.8729 40.8467L21.8625 37.857ZM17.2296 39.7577C17.0514 39.5796 17.0547 39.3981 17.2395 39.2133L19.1402 37.3126L19.6847 37.857L17.7839 39.7577C17.5992 39.9425 17.4144 39.9425 17.2296 39.7577ZM27.3568 32.3628L25.8025 33.917L22.4565 33.9962L21.912 34.5407L23.5455 36.1741L22.4565 37.2631L18.1007 32.9073L19.1897 31.8183L20.8231 33.4518L21.3676 32.9073L21.4567 29.5514L23.001 28.007L22.9515 32.4123L27.3568 32.3628ZM26.5687 24.4394L29.8355 27.7062L28.2021 29.3396C27.8391 29.7026 27.4761 29.7026 27.1131 29.3396L24.3908 26.6172L23.3018 27.7062L26.0242 30.4286C27.1131 31.5175 28.2021 31.5175 29.291 30.4286L31.4689 28.2507L32.5579 29.3396L33.6963 28.2012L31.5184 26.0233L30.9244 26.6172L27.6576 23.3504L26.5687 24.4394ZM37.2628 22.4568L36.1739 23.5457L35.7086 23.0804C35.5238 24.0176 35.1674 24.7501 34.6395 25.2781C33.5505 26.3671 32.4616 26.3671 31.3726 25.2781L28.5513 22.4568L29.6402 21.3678L32.4616 24.1892C32.818 24.5455 33.1809 24.5455 33.5505 24.1892C34.1841 23.3708 34.3821 22.4799 34.1445 21.5163L31.8181 19.1899L32.9071 18.101L37.2628 22.4568ZM34.8869 18.8929C33.963 17.969 33.9564 17.0516 34.8671 16.1409L37.8568 13.1512L42.2126 17.507L41.1236 18.5959L39.4902 16.9625L39.0051 17.4476L39.2724 20.4472L37.8568 21.8628L37.5895 18.8632C36.6788 19.774 35.7779 19.7839 34.8869 18.8929ZM37.8568 15.3291L35.9561 17.2298C35.7713 17.4146 35.7779 17.606 35.9759 17.804C36.1409 17.969 36.3158 17.9591 36.5006 17.7743L38.4013 15.8736L37.8568 15.3291Z" fill-rule="evenodd" fill="#F8F200"/>
</svg>
