<svg width="132.000000" height="132.000000" viewBox="0 0 132 132" fill="none" xmlns="http://www.w3.org/2000/svg" xmlns:xlink="http://www.w3.org/1999/xlink">
	<desc>
			Created with Pixso.
	</desc>
	<defs/>
	<path d="M117.36 48.4629L119.4 25.2686L97.74 20.1143L86.4 0L66 9.17712L45.6 0L34.26 20.0515L12.6 25.1428L14.64 48.3999L0 66L14.64 83.5371L12.6 106.794L34.26 111.948L45.6 132L66 122.76L86.4 131.937L97.74 111.886L119.4 106.731L117.36 83.5371L132 66L117.36 48.4629ZM126.789 66L113.231 49.7581L113.375 48.1123L115.113 28.3601L95.1139 23.6011L84.7096 5.14661L66 13.5632L47.2859 5.14453L36.8798 23.5447L16.8874 28.2441L18.7686 49.6914L5.20676 65.9954L18.769 82.2415L16.8865 103.703L36.883 108.461L47.2813 126.847L65.9944 118.371L84.7141 126.793L95.117 108.398L115.113 103.64L113.231 82.2419L126.789 66Z" fill-rule="evenodd" fill="#F8F200"/>
	<path d="M46.6676 78.8197L40.834 72.9861C38.5005 70.6526 36.1671 70.6526 33.8336 72.9861L28.4243 78.3954L30.7577 80.7289L36.1671 75.3195C36.9449 74.5417 37.7156 74.5346 38.4793 75.2983L38.5005 75.3195L34.4276 79.3925C32.476 81.3441 32.4548 83.2745 34.364 85.1837C36.3439 87.1636 38.3096 87.1777 40.2612 85.2261L46.6676 78.8197ZM36.7398 82.8926C36.358 82.5108 36.3651 82.1219 36.7611 81.7259L40.834 77.653L42.0007 78.8197L37.9278 82.8926C37.5318 83.2886 37.1358 83.2886 36.7398 82.8926ZM58.4409 67.0464L55.1105 70.3768L47.9404 70.5466L46.7737 71.7133L50.2739 75.2135L47.9404 77.5469L38.6066 68.2131L40.9401 65.8797L44.4402 69.3798L45.607 68.2131L45.7979 61.0218L49.1071 57.7126L49.0011 67.1524L58.4409 67.0464ZM56.7522 50.0675L63.7525 57.0679L60.2524 60.5681C59.4745 61.3459 58.6967 61.3459 57.9189 60.5681L52.0853 54.7344L49.7518 57.0679L55.5855 62.9015C57.9189 65.235 60.2524 65.235 62.5858 62.9015L67.2527 58.2346L69.5862 60.5681L72.0257 58.1285L67.3588 53.4616L66.086 54.7344L59.0856 47.7341L56.7522 50.0675ZM79.6682 45.8191L77.3348 48.1525L76.3378 47.1555C75.9418 49.1637 75.1781 50.7335 74.0467 51.8648C71.7133 54.1983 69.3798 54.1983 67.0464 51.8648L61.0006 45.8191L63.3341 43.4856L69.3798 49.5314C70.1435 50.2951 70.9213 50.2951 71.7133 49.5314C73.0709 47.7778 73.4952 45.8686 72.9861 43.8038L68.001 38.8187L70.3344 36.4853L79.6682 45.8191ZM74.5771 38.1823C72.5972 36.2024 72.583 34.2367 74.5346 32.2851L80.941 25.8787L90.2748 35.2125L87.9414 37.5459L84.4412 34.0458L83.4018 35.0852L83.9745 41.5128L80.941 44.5463L80.3683 38.1187C78.4167 40.0703 76.4863 40.0915 74.5771 38.1823ZM80.941 30.5456L76.8681 34.6185C76.4721 35.0145 76.4863 35.4246 76.9105 35.8489C77.2641 36.2024 77.6388 36.1812 78.0348 35.7852L82.1078 31.7123L80.941 30.5456Z" fill-rule="evenodd" fill="#F8F200"/>
</svg>
