<svg width="172.049988" height="74.000000" viewBox="0 0 172.05 74" fill="none" xmlns="http://www.w3.org/2000/svg" xmlns:xlink="http://www.w3.org/1999/xlink">
	<desc>
			Created with Pixso.
	</desc>
	<defs>
		<clipPath id="clip17_297">
			<rect width="172.050003" height="74.000000" fill="white"/>
		</clipPath>
	</defs>
	<g clip-path="url(#clip17_297)">
		<path d="M12.532 65.9355C13.6027 64.7842 14.8613 63.4834 15.6128 62.8721C15.4016 62.8535 15.0681 62.8125 14.7059 62.7583C13.9225 63.4717 12.9233 64.5142 12.0282 65.4702C10.8938 66.6943 9.95892 67.7632 9.95892 67.7686C9.94464 67.7773 9.93945 67.7964 9.9245 67.8096C9.18335 68.0137 7.92542 68.3594 7.08875 68.5874C5.84839 68.9312 4.73541 68.8467 4.73541 69.6577C4.73541 69.6577 3.45148 70.3462 3.75183 71.3726C3.75183 71.3726 6.32751 69.3154 8.53131 68.9668C8.53131 68.9668 7.185 69.8423 7.30719 71.0293C7.30719 71.0293 9.12164 68.3149 11.2403 69.9604C11.2403 69.9604 10.2963 68.6782 10.6896 67.9727C11.0283 67.5884 11.7298 66.7993 12.532 65.9355ZM8.45203 33.8882C8.34088 33.9375 8.22516 33.9556 8.10614 33.9556C7.73041 33.9556 7.37805 33.728 7.22528 33.356C7.21161 33.3252 7.19409 33.2891 7.18756 33.2505L6.90802 33.3433C7.14337 34.0283 7.85071 34.4033 8.48907 34.1826C8.64966 34.1245 8.79333 34.0396 8.90448 33.9302C9.25555 33.6001 9.39789 33.0635 9.22302 32.5532L8.58203 32.772C8.62231 32.8662 8.64966 32.9683 8.64966 33.0776C8.64966 33.1724 8.63342 33.2583 8.5957 33.3403L8.88824 33.5186C8.83752 33.5952 8.77515 33.6719 8.70038 33.7354C8.63342 33.7993 8.54761 33.8496 8.45203 33.8882ZM34.4083 31.8096L21.7399 34.8989L21.7399 34.8853L21.7438 34.8989L46.4884 24.1943L26.0956 26.6914L37.0113 18.7202L25.3141 23.2856L27.0804 19.7417L18.7131 25.7671L18.6423 25.6396L30.5052 0L11.2143 22.8271L11.094 10.3813L4.01575 27.0166L3.64783 22.1128L0.160706 34.8735L0.167236 34.8696L0.167236 34.8735C0.167236 34.8735 0.637207 34.5259 1.2691 34.3354C1.31982 34.3218 1.37122 34.3086 1.42188 34.2944C1.42841 34.2944 1.43488 34.2891 1.44208 34.2891C1.49341 34.2783 1.54413 34.2656 1.59485 34.2578C1.60132 34.2578 1.60913 34.252 1.6189 34.252C1.6709 34.2432 1.72095 34.2358 1.77948 34.2324L1.77948 34.2266C1.83405 34.2222 1.88739 34.2197 1.93872 34.2148L1.97186 34.2148C2.02325 34.2104 2.07849 34.2104 2.13635 34.2148C2.13959 34.2148 2.14288 34.2148 2.15521 34.2197C2.20331 34.2197 2.25079 34.2222 2.30212 34.2324C2.31189 34.2358 2.31836 34.2358 2.32941 34.2358C2.3847 34.2432 2.43475 34.252 2.48608 34.2656C2.49976 34.2656 2.51343 34.2705 2.5199 34.2734C2.57324 34.2871 2.62781 34.3013 2.68634 34.3218C3.87927 34.7534 4.89404 34.3218 4.89404 34.3218C4.89404 34.3218 6.0174 35.0425 6.0174 35.6475L6.01483 35.6475L6.01483 35.6499C6.01483 35.6499 4.5365 35.7363 4.5365 35.082C4.5365 35.082 2.64606 34.4106 0.000793457 35.3906L5.57922 37.7891C5.57599 37.7632 5.28149 36.7251 5.60394 36.3638C5.70599 36.2388 5.88544 36.1953 6.16498 36.29C6.26703 36.3267 6.34119 36.3174 6.38733 36.2729C6.82092 35.8257 4.71722 31.9414 4.71722 31.9414C4.71722 31.9414 2.82806 31.7583 1.19373 33.4678C1.08514 33.5806 0.972046 33.7021 0.867371 33.8354L0.867371 33.8296L0.867371 33.8354C1.03442 33.5444 1.56427 32.7002 2.44843 31.9688C2.97821 31.5244 3.6413 31.126 4.43121 30.9009C4.64764 30.3818 4.37268 30.7197 4.81927 30.4468C4.82257 30.4468 4.82257 30.4424 4.82257 30.4424C5.03253 29.0728 5.80811 25.5454 8.48322 22.5288C8.66266 22.3286 8.84729 22.1265 9.04358 21.9346C9.04358 21.9346 8.3584 23.2231 8.3584 24.1196C8.37793 24.0967 9.05463 23.0815 9.99011 22.1528L9.99011 22.1489C9.99011 22.1489 9.97906 22.1641 9.96545 22.1895C9.79187 22.561 8.51636 25.2832 8.64966 26.0781C8.65356 26.085 8.65613 26.0894 8.65613 26.0972L11.2344 23.7354C11.2344 23.7354 11.2273 23.7402 11.2234 23.7427C11.1486 23.8447 8.80243 27.0166 8.57098 28.1035L8.57098 28.1108L12.4748 25.3232L12.4709 25.3276C12.4579 25.3506 11.9794 26.0181 11.7779 26.3838C11.6349 26.646 11.6141 26.7344 11.6141 26.7617L11.6206 26.7822L13.7224 25.8818C13.7224 25.8818 13.6313 25.9907 13.4844 26.1499L12.7023 26.9448L12.5093 27.1489L11.0875 28.5854L11.0609 28.6187L9.97906 29.7173L9.28546 30.4238C9.28546 30.4238 8.7179 31.0146 8.64966 31.3208C8.58203 31.6216 8.90186 31.8076 8.90186 31.8076L8.89801 31.8076C9.18726 31.9688 9.42065 32.2183 9.5578 32.5166C9.63324 32.6973 9.67615 32.8936 9.67615 33.105C9.67615 33.5186 9.50647 33.8936 9.22302 34.1646C8.94543 34.4375 8.55408 34.6074 8.12305 34.6074C7.73041 34.6074 7.38196 34.4653 7.10956 34.2378C7.15704 34.3013 7.92542 35.2671 9.33612 34.5166L11.0797 33.2461L11.1551 33.187L12.9572 31.8696C13.3823 32.3711 13.7841 32.9756 14.1475 33.6611C13.0768 34.6782 11.2507 36.4429 9.42719 38.3726C8.34088 39.52 7.25647 40.7324 6.33075 41.8779L6.98083 38.8237L7.03479 38.5713C7.03479 38.5713 7.03223 38.5713 7.03223 38.5762C7.02509 38.5791 7.02118 38.5791 7.01599 38.584C7.01599 38.5864 7.00751 38.5908 7.00751 38.5908C7.00104 38.5942 6.99384 38.5942 6.98993 38.6045C6.98669 38.6045 6.98083 38.6074 6.98083 38.6143C6.97369 38.6182 6.96265 38.623 6.95679 38.6274C6.95288 38.6299 6.95032 38.6396 6.93927 38.6416C6.93274 38.6455 6.92297 38.6553 6.91388 38.6582C6.90802 38.667 6.90222 38.6709 6.89178 38.6782C6.88464 38.6851 6.87946 38.6929 6.8645 38.6963C6.85474 38.7065 6.84827 38.7163 6.83716 38.7217C6.82806 38.7295 6.81702 38.7417 6.80597 38.7437C6.79755 38.7573 6.7865 38.769 6.7774 38.7729C6.76245 38.7827 6.75269 38.7949 6.73901 38.8042C6.72864 38.8115 6.71887 38.8237 6.70978 38.834C6.69543 38.8457 6.67792 38.855 6.66815 38.8711C6.65063 38.8774 6.6441 38.8892 6.6272 38.8965C6.61682 38.9136 6.59991 38.9258 6.58234 38.9409C6.57324 38.9517 6.55505 38.9639 6.54529 38.9771C6.52771 38.9912 6.50757 39.0078 6.49396 39.0259C6.48029 39.0381 6.47119 39.0498 6.453 39.0591C6.44 39.0791 6.42047 39.0986 6.39575 39.1167C6.38214 39.1279 6.3717 39.1372 6.36194 39.1499C6.35089 39.1611 6.33789 39.1729 6.32361 39.1836C6.32361 39.1885 6.32098 39.1885 6.32098 39.1885C6.30151 39.2065 6.28003 39.23 6.25989 39.252C6.24237 39.2632 6.2287 39.2812 6.21637 39.2974C6.19165 39.3159 6.17407 39.3364 6.15393 39.356C6.13702 39.3721 6.11951 39.3926 6.10321 39.4067C6.0896 39.4277 6.07202 39.4429 6.06293 39.4561C6.05579 39.4614 6.04669 39.4712 6.03888 39.479C6.03888 39.4814 6.03235 39.4868 6.02454 39.4937C6.01221 39.5068 6.00116 39.5181 5.98749 39.5322C5.97058 39.5522 5.95374 39.5684 5.93683 39.5889C5.93292 39.5957 5.9303 39.6016 5.92316 39.603C5.91602 39.6108 5.91016 39.6143 5.90302 39.6221C5.89392 39.6382 5.8822 39.6499 5.86853 39.6616C5.84839 39.6909 5.82825 39.7129 5.8009 39.7363C5.78339 39.7617 5.76257 39.7798 5.74634 39.8057C5.7262 39.8311 5.69885 39.8584 5.67804 39.8818C5.6579 39.9072 5.63904 39.9272 5.61957 39.9526C5.59357 39.9814 5.57343 40.0112 5.54608 40.0396C5.52856 40.0625 5.50775 40.0859 5.48566 40.1133C5.46417 40.1445 5.44012 40.1719 5.41284 40.208C5.3927 40.2261 5.37579 40.2544 5.35431 40.2769C5.32898 40.3154 5.30103 40.3477 5.27368 40.3848C5.25293 40.4121 5.23602 40.4302 5.22235 40.4546C5.18921 40.4985 5.15411 40.542 5.1203 40.5854C5.10986 40.603 5.09235 40.6235 5.08325 40.6396C5.03577 40.7051 4.98505 40.7715 4.93958 40.8403L4.93372 40.8481C4.88818 40.9146 4.84076 40.98 4.79718 41.0474C4.78613 41.0664 4.77185 41.0894 4.75751 41.1104C4.72632 41.1606 4.68994 41.2124 4.65546 41.2661C4.63727 41.2915 4.62427 41.3169 4.60413 41.3423C4.57355 41.3936 4.54236 41.439 4.50854 41.4897C4.49097 41.521 4.47473 41.5483 4.4585 41.5762C4.43121 41.6274 4.39673 41.6797 4.36359 41.73C4.3493 41.7612 4.3291 41.7915 4.31287 41.8237C4.28168 41.875 4.25433 41.9282 4.21991 41.98C4.20233 42.0068 4.18286 42.0435 4.16528 42.0747C4.13409 42.1343 4.10352 42.186 4.07233 42.2402C4.05804 42.271 4.03918 42.3052 4.02295 42.3403C3.87927 42.6045 3.74011 42.8774 3.59711 43.1724L3.59711 43.1777L2.87939 43.2979C3.02307 42.9287 3.16547 42.5933 3.31885 42.2754L2.14868 43.9224L3.31885 43.8081C2.31836 46.1069 1.58441 49.1152 1.58441 53.3999L2.5368 52.7974C3.37671 57.5796 7.32019 59.6812 7.32019 59.6812L7.31372 59.6514C9.48566 61.0728 12.1302 62.0674 15.0446 62.4609C15.449 62.5122 15.7766 62.5425 15.8508 62.5493C15.8533 62.5493 15.8533 62.5493 15.8533 62.5474C15.906 62.5542 15.9528 62.563 16.0035 62.563C17.582 62.7007 19.1149 62.6445 20.5808 62.4297C20.5769 62.4858 20.5737 62.5425 20.5737 62.5991C20.5737 63.5459 21.1003 64.3252 21.7712 64.3896C20.3936 66.7324 19.2774 69.8442 19.2741 69.8584C19.2208 70.0015 19.111 70.2666 18.9998 70.3462C18.6605 70.4229 18.6331 70.4395 18.2574 70.5566L18.2632 70.5522C18.1365 70.4287 17.0482 70.2251 15.9398 70.6411C15.9424 70.6465 15.9424 70.6465 15.9489 70.6523C15.3216 70.9272 14.7111 71.4297 14.2879 72.2622C14.7384 71.8979 15.579 71.3066 16.2635 71.3887C15.4529 71.8501 14.0526 72.7314 13.8926 74C13.8926 74 18.7541 70.5898 21.1509 71.2188C21.1509 71.2188 20.8019 71.6152 21.6275 73.0884L22.0045 71.7183C22.4362 70.3892 20.7713 70.1934 20.0712 70.1646C20.0744 70.1548 20.0744 70.1504 20.0744 70.1484C20.0744 70.1484 20.1518 69.9355 20.2877 69.583C20.7004 68.5186 21.6613 66.165 22.7131 64.4849C22.732 64.4497 22.7457 64.4121 22.7567 64.3779L22.5597 64.1069C22.5616 64.1069 22.7021 63.9531 22.7775 63.8403C22.9166 63.6201 23.1104 63.2461 23.1136 62.7515C23.1136 62.3638 23.0187 61.874 22.7424 61.2661L23.3652 60.9775C23.399 61.0566 23.4321 61.1299 23.4653 61.2007C23.4744 61.228 23.4835 61.2524 23.4913 61.2729C23.5108 61.3237 23.5309 61.375 23.5479 61.4258C23.5583 61.4487 23.5674 61.4771 23.5765 61.5024C23.5934 61.5576 23.6089 61.6089 23.6272 61.6597C23.631 61.6753 23.6408 61.6963 23.6447 61.7144L27.2027 60.6401L26.4141 59.9907L26.4089 59.9907L26.3738 59.9556L26.3556 59.9419L12.8987 47.6895C12.9026 47.6895 12.9065 47.6958 12.9065 47.6958L12.9026 47.6895C16.6439 49.5088 21.0079 51.6235 28.4106 55.0527C35.7033 58.4131 40.3209 60.3711 42.7029 61.3467C42.723 61.3594 42.7451 61.3677 42.7614 61.375L42.7653 61.375C43.1111 61.5176 43.4083 61.6362 43.6585 61.7383C44.1682 61.938 44.646 62.1226 44.672 62.1343C44.7123 62.1113 44.7604 62.0991 44.8014 62.0776L17.595 43.4229L34.4083 31.8096ZM15.579 37.5596L11.5231 40.644L14.4342 34.2432L14.4342 34.2378C14.897 35.2192 15.2858 36.3408 15.5829 37.5596L15.579 37.5596ZM30.0618 59.6289L30.1632 60.1157L30.1606 60.1157L34.9011 62.9106L36.1005 63.6074L35.4446 61.9204C39.3555 63.0732 42.5403 63.1377 44.6584 62.1401C44.6584 62.1401 44.6558 62.1401 44.6558 62.1411C40.9691 63.2305 31.8275 60.1514 30.0618 59.6289Z" fill-rule="nonzero" fill="#DC0D15"/>
		<path d="M4.53638 35.0815C4.53638 35.7358 6.01465 35.6494 6.01465 35.6494C6.01465 35.0479 4.89325 34.3237 4.89325 34.3237C4.89325 34.3237 3.87909 34.7529 2.67969 34.3237C2.19928 34.1504 1.69672 34.2065 1.26898 34.3374C0.700806 34.7163 0 35.395 0 35.395C2.64587 34.4106 4.53638 35.0815 4.53638 35.0815ZM14.434 34.2432L11.5229 40.6436L15.5789 37.5591C15.2856 36.3403 14.8911 35.2241 14.434 34.2432ZM44.6783 62.1343C44.6783 62.1343 35.5667 58.7163 12.8985 47.689L26.4081 59.9907L26.414 59.9907C27.6238 59.4883 28.4754 59.1318 30.1605 60.1157L30.061 59.6284C31.8234 60.1509 40.9995 63.2456 44.6783 62.1343ZM22.7416 61.2656C23.0186 61.8735 23.1135 62.3638 23.1135 62.751C23.1096 63.2456 22.9164 63.6201 22.7773 63.8403C22.702 63.9536 22.5615 64.1064 22.5596 64.1064L22.9639 64.6606C23.0075 64.6328 23.7974 64.0361 23.7974 62.751C23.7974 62.2515 23.6777 61.6597 23.3624 60.9771L22.7416 61.2656ZM14.6089 62.7412C15.2518 62.8433 15.8376 62.8975 15.8376 62.8975L15.8675 62.5576C15.8675 62.5576 15.2941 62.5068 14.6649 62.4048L14.6089 62.7412ZM14.1473 33.6616C13.7839 32.9756 13.3822 32.3716 12.957 31.8696L9.336 34.5205C7.87396 35.293 7.10291 34.2358 7.10291 34.2358C7.37079 34.4653 7.72766 34.6069 8.12292 34.6069C8.98236 34.6069 9.67273 33.9297 9.67535 33.105C9.67535 32.8965 9.63312 32.6968 9.55444 32.5215C9.42053 32.2178 9.18323 31.9683 8.89526 31.8091L8.90173 31.8071C8.90173 31.8071 8.58191 31.6221 8.64948 31.3203C8.71777 31.0142 9.28467 30.4233 9.28467 30.4233L9.28137 30.4263L11.0607 28.6182L11.0873 28.5854L12.7022 26.9443L13.4843 26.1494C13.6312 25.9902 13.7183 25.8857 13.7183 25.8857L11.614 26.7827C11.614 26.7827 11.5736 26.7598 11.7778 26.3833C11.9813 26.0103 12.474 25.3228 12.474 25.3228L8.56757 28.1108C8.79315 27.0166 11.2336 23.7397 11.2336 23.7397L8.65533 26.0986C8.48242 25.2769 9.98999 22.1523 9.98999 22.1523C9.04083 23.0928 8.3576 24.125 8.3576 24.125C8.3576 23.2236 9.04083 21.9341 9.04083 21.9341C5.91003 25.0654 5.04083 28.9839 4.82239 30.4419C4.36865 30.7251 4.64752 30.3799 4.43103 30.9004C2.32861 31.4941 1.13574 33.3691 0.864624 33.835C2.56982 31.731 4.71643 31.9409 4.71643 31.9409C4.71643 31.9409 7.27979 36.6763 6.16486 36.2944C5.04083 35.9053 5.5791 37.7886 5.5791 37.7886L3.48193 36.8843C3.82776 37.5688 4.50842 39.1807 4.11768 40.8574C3.68604 41.5132 3.25763 42.3125 2.8786 43.2979L3.59631 43.1777C3.73676 42.8774 3.87585 42.604 4.01562 42.3418C4.03577 42.3081 4.05725 42.2759 4.0722 42.2427C4.10016 42.1875 4.13135 42.1338 4.16516 42.0786C4.18207 42.0464 4.20221 42.0107 4.21979 41.9795C4.24969 41.9287 4.2757 41.8774 4.30884 41.8267C4.32898 41.791 4.34912 41.7607 4.3634 41.7295C4.39594 41.6792 4.42322 41.627 4.45837 41.5796C4.47461 41.5479 4.49084 41.5205 4.50842 41.4951C4.53894 41.4438 4.57275 41.3931 4.60394 41.3438C4.61829 41.3164 4.63324 41.291 4.65466 41.2656C4.6839 41.2144 4.72034 41.1636 4.75671 41.1128C4.77167 41.0889 4.78082 41.0659 4.79706 41.0474C4.84058 40.9795 4.88806 40.9141 4.93359 40.8506C4.93359 40.8477 4.93878 40.8433 4.93878 40.8408C4.98425 40.771 5.03174 40.7085 5.07721 40.6436C5.09216 40.6279 5.10651 40.6064 5.12012 40.5884C5.15393 40.5415 5.18518 40.5005 5.21832 40.4546C5.23584 40.4297 5.25214 40.4116 5.27289 40.3892C5.29761 40.3525 5.32428 40.3149 5.35156 40.2773C5.375 40.2544 5.39252 40.2314 5.40881 40.2075C5.43414 40.1753 5.46014 40.144 5.48547 40.1128C5.50433 40.0898 5.52838 40.0674 5.54529 40.042C5.57263 40.0107 5.59277 39.9839 5.61615 39.9556C5.63824 39.9326 5.65515 39.9092 5.67468 39.8867C5.69873 39.8579 5.7215 39.8306 5.74615 39.8071C5.76245 39.7847 5.78326 39.7632 5.80078 39.7417C5.82355 39.7124 5.8476 39.6904 5.8645 39.665C5.88531 39.6465 5.90222 39.6216 5.92236 39.603C5.94446 39.5806 5.96332 39.5596 5.98737 39.5356C6.00427 39.5122 6.02118 39.499 6.03809 39.4785C6.06281 39.4556 6.08099 39.4355 6.10309 39.4102C6.11676 39.397 6.1369 39.3765 6.15381 39.3555C6.17004 39.3359 6.19153 39.3154 6.21558 39.2969C6.22858 39.2827 6.24219 39.2671 6.25977 39.2515C6.27924 39.23 6.30139 39.2061 6.32019 39.188C6.33777 39.1768 6.34686 39.1606 6.36115 39.1514C6.39496 39.1172 6.4223 39.0884 6.45282 39.0586C6.47101 39.0493 6.48016 39.0376 6.49377 39.0259C6.50745 39.0078 6.52759 38.9917 6.54449 38.9766C6.55426 38.9634 6.57245 38.9512 6.58221 38.9404C6.59912 38.9258 6.61664 38.9131 6.6264 38.8965C6.64398 38.8896 6.65045 38.877 6.66736 38.8711C6.6778 38.8545 6.69464 38.8452 6.70959 38.8335C6.71875 38.8237 6.72845 38.811 6.73889 38.8037C6.7525 38.7944 6.76227 38.7827 6.77661 38.7725C6.78571 38.7695 6.79675 38.7568 6.80585 38.7432C6.81689 38.7422 6.82794 38.729 6.83704 38.7217C6.84808 38.7158 6.85394 38.7061 6.86432 38.6963C6.87866 38.6924 6.88452 38.6855 6.89166 38.6782C6.90143 38.6704 6.9079 38.6675 6.91376 38.6582C6.92218 38.6548 6.93262 38.645 6.93909 38.6421C6.94952 38.6401 6.95276 38.6294 6.95599 38.627C6.96252 38.6226 6.97357 38.6177 6.98071 38.6138C6.98071 38.6069 6.98657 38.604 6.98981 38.604C6.99371 38.5942 7.00085 38.5942 7.00739 38.5903C7.00739 38.5903 7.01514 38.5859 7.01514 38.5835C7.021 38.5791 7.02429 38.5791 7.03204 38.5762C7.03204 38.5718 7.03467 38.5718 7.03467 38.5718L6.98071 38.8237L6.33063 41.8774C8.79578 38.8237 12.4357 35.2812 14.1473 33.6616ZM6.90527 33.3438L7.18744 33.2505C7.19397 33.2891 7.21149 33.3257 7.22516 33.3555C7.37793 33.7275 7.73029 33.9551 8.10535 33.9551C8.22498 33.9551 8.3407 33.937 8.4519 33.8877C8.6391 33.8115 8.78864 33.6763 8.88806 33.5186L8.59552 33.3438C8.63263 33.2632 8.64948 33.1719 8.64948 33.0776C8.64948 32.9688 8.62219 32.8667 8.58191 32.7715L9.2229 32.5532C9.45496 33.2354 9.1286 33.9644 8.48633 34.1846C7.84796 34.4028 7.13934 34.0317 6.90527 33.3438Z" fill-rule="nonzero" fill="#000000"/>
		<path d="M66.2148 38.4717C65.7825 38.356 65.1363 38.2925 64.2957 38.2925L62.4703 38.2925L62.4703 48.606L62.664 48.4707L64.165 47.4126L64.2184 47.374L64.2184 44.4556L64.7917 44.4556C65.8508 44.4556 66.7102 44.1729 67.3414 43.6245C67.9778 43.0659 68.2983 42.3081 68.2983 41.3657C68.2983 40.4834 67.9974 39.7441 67.4052 39.1621C67.0645 38.8267 66.6666 38.5938 66.2148 38.4717ZM64.6949 42.9692L64.2138 42.9692L64.2138 39.8071L64.7534 39.8071C66.1323 39.8071 66.8265 40.3184 66.8265 41.3374C66.8265 42.4253 66.1127 42.9692 64.6949 42.9692ZM75.924 44.208C76.5273 44.0376 77.0272 43.7114 77.4101 43.231C77.8326 42.7065 78.0426 42.0649 78.0426 41.3374C78.0426 40.4048 77.702 39.6372 77.0317 39.0649C76.4297 38.5557 75.4429 38.2925 74.1024 38.2925L72.223 38.2925L72.223 48.606L72.4122 48.4707L73.9185 47.4126L73.9717 47.374L73.9717 44.4214L74.0543 44.4214L76.8621 48.4424L76.9297 48.5435L77.0317 48.4707L78.2364 47.6011L78.3384 47.5283L78.2656 47.4272L75.924 44.208ZM73.9717 42.9692L73.9717 42.8667L73.9717 39.9541L73.9717 39.8071L74.5107 39.8071C75.8901 39.8071 76.5851 40.3184 76.5851 41.3374C76.5851 42.4253 75.8713 42.9692 74.4521 42.9692L73.9717 42.9692ZM49.7155 38.5986C49.1226 38.395 48.3112 38.2925 47.3055 38.2925L45.0965 38.2925L45.0965 48.4897L47.2821 48.4897C48.2963 48.4897 49.0927 48.3979 49.6569 48.2085C50.2543 48.019 50.8408 47.6792 51.3901 47.1987C52.4783 46.2319 53.0367 44.9556 53.0367 43.3911C53.0367 41.8423 52.5024 40.5649 51.4538 39.6089C50.9337 39.1372 50.3512 38.7979 49.7155 38.5986ZM50.2056 45.9414C49.861 46.2505 49.4677 46.4849 49.0341 46.625C48.6083 46.7661 48.0544 46.8345 47.3978 46.8345L46.8446 46.8345L46.8446 39.9541L47.3978 39.9541C48.6369 39.9541 49.5887 40.25 50.2147 40.8281C50.9194 41.4834 51.2692 42.3418 51.2692 43.3911C51.2692 44.4355 50.9149 45.2896 50.2056 45.9414ZM38.7282 39.7637C39.3731 39.7637 40.0102 39.9482 40.6317 40.313L40.7396 40.3755L40.7974 40.2686L41.5262 39.0117L41.5892 38.9053L41.4826 38.8413C40.6317 38.3516 39.7378 38.104 38.8342 38.104C37.1641 38.104 35.7852 38.729 34.736 39.9678C33.8811 40.9829 33.4481 42.1484 33.4481 43.4404C33.4481 44.877 33.9682 46.1304 34.9836 47.1494C36.0128 48.1602 37.2661 48.6743 38.7184 48.6743C39.6793 48.6743 40.6083 48.4214 41.4826 47.9268L41.5444 47.8877L41.5444 47.7856L41.5308 47.7578L40.7974 46.4893L40.7337 46.3789L40.6226 46.4517C40.4191 46.582 40.2182 46.689 40.0342 46.7661C39.6793 46.9316 39.243 47.0137 38.7321 47.0137C37.7524 47.0137 36.9118 46.6641 36.2312 45.9736C35.5557 45.2856 35.2112 44.4258 35.2112 43.4204C35.2112 42.4014 35.5557 41.5264 36.2312 40.8281C36.9073 40.1182 37.7465 39.7637 38.7282 39.7637ZM153.678 39.9541L153.712 39.9189L155.096 38.5063L155.306 38.2925L149.394 38.2925L149.394 48.4897L153.712 48.4897L153.747 48.4561L155.102 47.043L155.3 46.8345L151.142 46.8345L151.142 43.668L152.424 43.668L152.459 43.6294L153.863 42.2217L154.071 42.0078L151.142 42.0078L151.142 39.9541L153.678 39.9541ZM123.763 39.9541L126.05 39.9541L126.05 48.606L126.245 48.4707L127.746 47.4126L127.8 47.374L127.8 39.9541L130.083 39.9541L130.083 38.2925L123.763 38.2925L123.763 39.9541ZM86.7851 38.1079C85.3224 38.1079 84.0502 38.6284 83.0113 39.6528C81.962 40.6768 81.4323 41.9209 81.4323 43.3477C81.4323 44.9692 82.0147 46.3047 83.1621 47.3101C84.201 48.2144 85.3952 48.6743 86.7071 48.6743C88.1841 48.6743 89.4667 48.1548 90.5101 47.1357C91.5548 46.1206 92.084 44.8677 92.084 43.4067C92.084 41.9585 91.5594 40.6958 90.5199 39.666C89.4863 38.6323 88.2322 38.1079 86.7851 38.1079ZM89.2814 45.9707C88.5865 46.6641 87.7271 47.0137 86.7214 47.0137C85.8035 47.0137 84.9727 46.6685 84.2692 45.9844C83.5548 45.3052 83.1953 44.4258 83.1953 43.3633C83.1953 42.3574 83.545 41.4971 84.2296 40.8125C84.9148 40.1182 85.7697 39.7637 86.7656 39.7637C87.7661 39.7637 88.6158 40.1182 89.2919 40.8125C89.9764 41.5029 90.3209 42.3711 90.3209 43.3911C90.3209 44.3965 89.9712 45.2661 89.2814 45.9707ZM165.739 39.6089C165.219 39.1372 164.632 38.7979 163.995 38.5986C163.402 38.395 162.596 38.2925 161.586 38.2925L159.376 38.2925L159.376 48.4897L161.561 48.4897C162.577 48.4897 163.379 48.3979 163.942 48.2085C164.539 48.019 165.121 47.6792 165.671 47.1987C166.764 46.2319 167.317 44.9556 167.317 43.3911C167.317 41.8423 166.788 40.5649 165.739 39.6089ZM164.49 45.9414C164.14 46.2505 163.746 46.4849 163.32 46.625C162.888 46.7661 162.338 46.8345 161.678 46.8345L161.125 46.8345L161.125 39.9541L161.678 39.9541C162.922 39.9541 163.869 40.25 164.501 40.8281C165.2 41.4834 165.553 42.3418 165.553 43.3911C165.553 44.4355 165.2 45.2896 164.49 45.9414ZM142.672 44.208C143.274 44.0376 143.774 43.7114 144.159 43.231C144.581 42.7065 144.79 42.0649 144.79 41.3374C144.79 40.4048 144.45 39.6372 143.779 39.0649C143.172 38.5557 142.191 38.2925 140.85 38.2925L138.966 38.2925L138.966 48.606L139.161 48.4707L140.666 47.4126L140.719 47.374L140.719 44.4214L140.801 44.4214L143.604 48.4424L143.678 48.5435L143.779 48.4707L144.983 47.6011L145.08 47.5283L145.013 47.4272L142.672 44.208ZM140.719 42.9692L140.719 39.8071L141.253 39.8071C142.638 39.8071 143.328 40.3184 143.328 41.3374C143.328 42.4253 142.618 42.9692 141.195 42.9692L140.719 42.9692ZM118.983 38.3311L115.322 42.0845L115.322 38.1807L115.127 38.3218L113.626 39.376L113.572 39.4141L113.572 48.606L113.772 48.4707L115.272 47.4126L115.322 47.374L115.322 44.2998L115.5 44.124L118.997 48.4463L119.066 48.5332L119.163 48.4707L120.45 47.6011L120.562 47.5239L120.474 47.416L116.75 42.9297L121.169 38.5063L121.378 38.2925L119.023 38.2925L118.983 38.3311ZM97.4707 39.3804L97.4167 39.4194L97.4167 44.8525C97.4167 45.6748 97.3296 46.2505 97.16 46.5713C97.0091 46.8726 96.7419 47.0137 96.3441 47.0137C96.0529 47.0137 95.7369 46.9028 95.3969 46.6743L95.2851 46.6016L95.222 46.7124L94.4789 47.9946L94.4205 48.1011L94.5225 48.1646C95.0855 48.5 95.6972 48.6743 96.3441 48.6743C97.2087 48.6743 97.9121 48.3584 98.4368 47.7476C98.7046 47.4375 98.8944 47.0527 99.0107 46.6064C99.1174 46.2183 99.1752 45.6445 99.1752 44.8579L99.1752 38.1807L98.9763 38.3218L97.4707 39.3804ZM108.22 39.9541L108.258 39.9189L109.642 38.5063L109.847 38.2925L103.941 38.2925L103.941 48.4897L108.254 48.4897L108.293 48.4561L109.642 47.043L109.843 46.8345L105.69 46.8345L105.69 43.668L106.967 43.668L107 43.6294L108.404 42.2217L108.613 42.0078L105.69 42.0078L105.69 39.9541L108.22 39.9541Z" fill-rule="nonzero" fill="#000000"/>
		<path d="M170.267 41.6694C169.283 41.6694 168.484 40.8691 168.484 39.8867C168.484 38.894 169.283 38.104 170.267 38.104C171.259 38.104 172.05 38.894 172.05 39.8867C172.05 40.8691 171.259 41.6694 170.267 41.6694ZM170.267 38.3716C169.426 38.3716 168.752 39.0371 168.752 39.8867C168.752 40.7188 169.426 41.3999 170.267 41.3999C171.108 41.3999 171.78 40.7188 171.78 39.8867C171.78 39.0371 171.108 38.3716 170.267 38.3716ZM170.755 40.9116L170.225 40.105L169.872 40.105L169.872 40.9116L169.586 40.9116L169.586 38.8687L170.418 38.8687C170.763 38.8687 171.083 39.1118 171.083 39.4917C171.083 39.9453 170.678 40.0962 170.562 40.0962L171.108 40.9116L170.755 40.9116ZM170.418 39.1216L169.872 39.1216L169.872 39.8438L170.418 39.8438C170.594 39.8438 170.788 39.7021 170.788 39.4917C170.788 39.2642 170.594 39.1216 170.418 39.1216Z" fill-rule="nonzero" fill="#000000"/>
	</g>
</svg>
