<svg width="79.999634" height="80.000000" viewBox="0 0 79.9996 80" fill="none" xmlns="http://www.w3.org/2000/svg" xmlns:xlink="http://www.w3.org/1999/xlink">
	<desc>
			Created with Pixso.
	</desc>
	<defs/>
	<path id="Vector" d="M40 80C39.6024 80 39.2065 79.9929 38.8111 79.9814L46.9859 57.5151L58.2359 57.5151C60.2105 57.5151 62.3781 55.9973 63.0535 54.1426L71.922 29.7822C73.3731 25.7939 71.0887 22.531 66.8448 22.531L51.2374 22.531L38.1426 58.5154L38.1376 58.5154L30.7135 78.9141C13.1007 74.7271 0 58.894 0 40C0 21.6509 12.3556 6.18896 29.2006 1.47656L21.5404 22.531L21.5381 22.531L8.80371 57.5151L17.2809 57.5159L28.1106 27.7881L34.4818 27.7881L23.6522 57.5159L32.1263 57.5173L42.2185 29.7822C43.6703 25.7939 41.3857 22.531 37.1458 22.531L30.0198 22.531L38.2018 0.0419922C38.7982 0.015625 39.397 0 39.9996 0C62.0911 0 79.9996 17.9084 79.9996 40C79.9996 62.0913 62.0911 80 39.9996 80L40 80ZM64.2022 27.7666L57.8328 27.7666L48.913 52.2405L55.2826 52.2405L64.2022 27.7666Z" fill-rule="nonzero" fill="#000000"/>
</svg>
